<svg xmlns="http://www.w3.org/2000/svg" viewBox="0 0 64 64" role="img" aria-label="United States">
  <defs>
    <clipPath id="r">
      <rect width="64" height="64" rx="14" ry="14"/>
    </clipPath>
  </defs>
  <g clip-path="url(#r)">
    <rect width="64" height="64" fill="#b31942"/>
    <rect y="4.92" width="64" height="4.92" fill="#fff"/>
    <rect y="14.77" width="64" height="4.92" fill="#fff"/>
    <rect y="24.62" width="64" height="4.92" fill="#fff"/>
    <rect y="34.46" width="64" height="4.92" fill="#fff"/>
    <rect y="44.31" width="64" height="4.92" fill="#fff"/>
    <rect y="54.15" width="64" height="4.92" fill="#fff"/>
    <rect width="28" height="34.46" fill="#0a3161"/>
    <g fill="#fff">
      <circle cx="5" cy="5.5" r="1.15"/>
      <circle cx="11.5" cy="5.5" r="1.15"/>
      <circle cx="18" cy="5.5" r="1.15"/>
      <circle cx="24.5" cy="5.5" r="1.15"/>
      <circle cx="8.25" cy="10" r="1.15"/>
      <circle cx="14.75" cy="10" r="1.15"/>
      <circle cx="21.25" cy="10" r="1.15"/>
      <circle cx="5" cy="14.5" r="1.15"/>
      <circle cx="11.5" cy="14.5" r="1.15"/>
      <circle cx="18" cy="14.5" r="1.15"/>
      <circle cx="24.5" cy="14.5" r="1.15"/>
      <circle cx="8.25" cy="19" r="1.15"/>
      <circle cx="14.75" cy="19" r="1.15"/>
      <circle cx="21.25" cy="19" r="1.15"/>
      <circle cx="5" cy="23.5" r="1.15"/>
      <circle cx="11.5" cy="23.5" r="1.15"/>
      <circle cx="18" cy="23.5" r="1.15"/>
      <circle cx="24.5" cy="23.5" r="1.15"/>
      <circle cx="8.25" cy="28" r="1.15"/>
      <circle cx="14.75" cy="28" r="1.15"/>
      <circle cx="21.25" cy="28" r="1.15"/>
    </g>
  </g>
</svg>
